<svg xmlns="http://www.w3.org/2000/svg" width="58" height="57" viewBox="0 0 58 57"><defs><clipPath id="f7vba"><path fill="#fff" d="M0 57V0h58v57zM29.1 5.24c-12.923 0-23.4 10.477-23.4 23.4 0 12.924 10.477 23.401 23.4 23.401 12.924 0 23.401-10.477 23.401-23.4 0-12.924-10.477-23.401-23.4-23.401z"/></clipPath></defs><g><g><g><g><path fill="#fff" d="M52.501 28.64c0 12.924-10.477 23.401-23.4 23.401-12.924 0-23.401-10.477-23.401-23.4C5.7 15.717 16.177 5.24 29.1 5.24c12.924 0 23.401 10.477 23.401 23.4z"/><path fill="none" stroke="#fff" stroke-miterlimit="20" stroke-opacity=".2" stroke-width="10" d="M52.501 28.64c0 12.924-10.477 23.401-23.4 23.401-12.924 0-23.401-10.477-23.401-23.4C5.7 15.717 16.177 5.24 29.1 5.24c12.924 0 23.401 10.477 23.401 23.4z" clip-path="url(&quot;#f7vba&quot;)"/></g></g><g transform="rotate(45 31.5 28.5)"><path fill-opacity=".5" d="M24.04 27.012l10.383-3.092-3.43 10.045z"/></g></g></g></svg>